<svg  viewBox="0 0 60 30" xmlns="http://www.w3.org/2000/svg">
<path fill-rule="evenodd" clip-rule="evenodd" d="M6 0C2.68629 0 0 2.68629 0 6V24C0 27.3137 2.68629 30 6 30H54C57.3137 30 60 27.3137 60 24V6C60 2.68629 57.3137 0 54 0H6ZM18.4934 18.31L18.1694 18.544C18.0254 18.64 17.7854 18.736 17.4494 18.832C17.1254 18.928 16.7774 18.976 16.4054 18.976C15.6134 18.976 14.8514 18.712 14.1194 18.184C13.7474 17.908 13.4414 17.53 13.2014 17.05C12.9614 16.57 12.8414 16.03 12.8414 15.43C12.8414 14.818 12.9614 14.272 13.2014 13.792C13.4414 13.312 13.7414 12.94 14.1014 12.676C14.8574 12.136 15.6254 11.866 16.4054 11.866C17.2454 11.866 17.9174 12.07 18.4214 12.478C18.8174 12.742 19.1234 12.874 19.3394 12.874C19.7114 12.874 20.1314 12.55 20.5994 11.902C20.8514 11.554 20.9774 11.224 20.9774 10.912C20.9774 10.588 20.8214 10.3 20.5094 10.048C20.3894 9.964 20.2214 9.856 20.0054 9.724L19.5734 9.472C19.2734 9.292 18.8294 9.118 18.2414 8.95C17.6654 8.77 17.0954 8.68 16.5314 8.68C15.3434 8.68 14.1614 9.004 12.9854 9.652C12.3614 9.988 11.8034 10.408 11.3114 10.912C10.8314 11.404 10.4354 12.034 10.1234 12.802C9.81144 13.558 9.65544 14.404 9.65544 15.34C9.65544 16.276 9.81144 17.146 10.1234 17.95C10.4474 18.742 10.8554 19.396 11.3474 19.912C11.8394 20.416 12.3914 20.848 13.0034 21.208C13.6274 21.556 14.2274 21.808 14.8034 21.964C15.3914 22.108 15.9674 22.18 16.5314 22.18C17.1074 22.18 17.7014 22.084 18.3134 21.892C18.9254 21.7 19.3274 21.544 19.5194 21.424C19.7234 21.304 19.9334 21.178 20.1494 21.046C20.3654 20.914 20.5514 20.764 20.7074 20.596C20.8754 20.428 20.9594 20.218 20.9594 19.966C20.9594 19.714 20.8274 19.378 20.5634 18.958C20.1314 18.286 19.7294 17.95 19.3574 17.95C19.1894 17.95 18.9014 18.07 18.4934 18.31ZM33.9142 8.788H23.9062C23.5102 8.788 23.2042 8.842 22.9882 8.95C22.8442 9.022 22.7422 9.154 22.6822 9.346C22.6222 9.526 22.5922 9.772 22.5922 10.084C22.5922 10.396 22.6222 10.648 22.6822 10.84C22.7422 11.032 22.8622 11.176 23.0422 11.272C23.2222 11.356 23.5042 11.398 23.8882 11.398H27.3442V20.434C27.3442 20.71 27.3502 20.92 27.3622 21.064C27.3862 21.196 27.4402 21.352 27.5242 21.532C27.6202 21.7 27.7762 21.82 27.9922 21.892C28.2202 21.964 28.5202 22 28.8922 22C29.2642 22 29.5642 21.964 29.7922 21.892C30.0202 21.82 30.1762 21.7 30.2602 21.532C30.3562 21.352 30.4102 21.196 30.4222 21.064C30.4462 20.932 30.4582 20.728 30.4582 20.452V11.398H33.8962C34.2922 11.398 34.5982 11.344 34.8142 11.236C34.9582 11.164 35.0602 11.038 35.1202 10.858C35.1802 10.666 35.2102 10.414 35.2102 10.102C35.2102 9.79 35.1802 9.538 35.1202 9.346C35.0602 9.154 34.9402 9.016 34.7602 8.932C34.5802 8.836 34.2982 8.788 33.9142 8.788ZM48.8442 19.3L45.2262 15.322L48.8442 11.344C49.2523 10.912 49.4562 10.534 49.4562 10.21C49.4562 9.886 49.2222 9.514 48.7542 9.094C48.2863 8.674 47.8962 8.464 47.5843 8.464C47.2842 8.464 46.9183 8.704 46.4863 9.184L43.0662 13.108L39.6462 9.184C39.2262 8.704 38.8542 8.464 38.5303 8.464C38.2183 8.464 37.8283 8.68 37.3602 9.112C36.8923 9.532 36.6582 9.898 36.6582 10.21C36.6582 10.522 36.8682 10.9 37.2882 11.344L40.9062 15.322L37.2882 19.3C36.8682 19.768 36.6582 20.152 36.6582 20.452C36.6582 20.752 36.8923 21.118 37.3602 21.55C37.8402 21.97 38.2303 22.18 38.5303 22.18C38.8423 22.18 39.2142 21.94 39.6462 21.46L43.0662 17.536L46.4863 21.46C46.9062 21.94 47.2723 22.18 47.5843 22.18C47.9082 22.18 48.2982 21.97 48.7542 21.55C49.2222 21.13 49.4562 20.764 49.4562 20.452C49.4562 20.14 49.2523 19.756 48.8442 19.3Z"/>
</svg>
