<svg viewBox="0 0 36 40" fill="none" xmlns="http://www.w3.org/2000/svg">
<g clip-path="url(#clip0_4307_619)">
<path d="M12.8009 0.421895C13.4277 -0.148418 14.4 -0.140605 15.0268 0.429707C17.2446 2.45314 19.3259 4.63283 21.2705 6.9922C22.1545 5.8672 23.1589 4.64064 24.2438 3.64064C24.8786 3.06252 25.8589 3.06252 26.4938 3.64845C29.2741 6.22658 31.6286 9.63283 33.2839 12.8672C34.9152 16.0547 36 19.3125 36 21.6094C36 31.5781 27.9804 40 18 40C7.90714 40 0 31.5703 0 21.6015C0 18.6015 1.43036 14.9375 3.64821 11.3125C5.89018 7.63283 9.05625 3.79689 12.8009 0.421895ZM18.1366 32.5C20.1696 32.5 21.9696 31.9531 23.6652 30.8594C27.0482 28.5625 27.9562 23.9687 25.9232 20.3594C25.5616 19.6562 24.6375 19.6094 24.1152 20.2031L22.0902 22.4922C21.5598 23.0859 20.6036 23.0703 20.1054 22.4531C18.7795 20.8125 16.4089 17.8828 15.0589 16.2187C14.5527 15.5937 13.5884 15.5859 13.0741 16.2109C10.358 19.5312 8.99196 21.625 8.99196 23.9765C9 29.3281 13.0661 32.5 18.1366 32.5Z" fill="url(#paint0_linear_4307_619)"/>
</g>
<defs>
<linearGradient id="paint0_linear_4307_619" x1="5.72727" y1="-2.4" x2="34.3456" y2="57.6994" gradientUnits="userSpaceOnUse">
<stop stop-color="#FD1818"/>
<stop offset="1" stop-color="#DDBE1E"/>
</linearGradient>
<clipPath id="clip0_4307_619">
<rect width="36" height="40" fill="white"/>
</clipPath>
</defs>
</svg>
