<svg width="428" height="263" viewBox="0 0 428 263" fill="none" xmlns="http://www.w3.org/2000/svg">
<g clip-path="url(#clip0_610_120)">
<path d="M220.176 119.45C212.609 116.086 209.199 107.217 212.564 99.6496C215.928 92.0825 224.797 88.6728 232.364 92.0371L250.639 100.162C258.206 103.527 261.616 112.395 258.252 119.962C254.887 127.53 246.018 130.939 238.451 127.575L220.176 119.45ZM247.718 115.963C246.14 115.262 244.294 115.971 243.593 117.549C242.891 119.127 243.601 120.973 245.179 121.674C246.756 122.376 248.602 121.666 249.304 120.088C250.005 118.511 249.295 116.665 247.718 115.963ZM247.782 111.204C248.483 109.626 247.774 107.78 246.196 107.079C244.618 106.377 242.772 107.087 242.071 108.665C241.369 110.242 242.079 112.088 243.657 112.79C245.235 113.491 247.08 112.781 247.782 111.204ZM222.779 108.979C222.357 109.929 222.781 111.032 223.731 111.454C224.68 111.877 225.784 111.452 226.206 110.503L227.222 108.218L229.506 109.234C230.455 109.656 231.559 109.232 231.981 108.283C232.403 107.333 231.979 106.23 231.029 105.808L228.745 104.792L229.761 102.507C230.183 101.558 229.759 100.455 228.809 100.032C227.86 99.6103 226.756 100.035 226.334 100.984L225.318 103.268L223.034 102.253C222.085 101.831 220.981 102.255 220.559 103.204C220.137 104.154 220.561 105.257 221.511 105.679L223.795 106.695L222.779 108.979Z" fill="black"/>
</g>
<path d="M244.438 98.3745C254.439 80.3745 293.438 22.3745 240.938 5.87451C178.809 -13.6515 -76.0616 68.3746 27.4384 188.875C130.938 309.375 347.438 260.375 425.438 165.875" stroke="black" stroke-width="5" stroke-linecap="round"/>
<defs>
<clipPath id="clip0_610_120">
<rect width="50" height="40" fill="white" transform="matrix(0.913758 0.406258 0.406258 -0.913758 204.438 117.925)"/>
</clipPath>
</defs>
</svg>
