<svg viewBox="0 0 56 30"  xmlns="http://www.w3.org/2000/svg">
<path fill-rule="evenodd" clip-rule="evenodd" d="M6 0C2.6875 0 0 2.68628 0 6V24C0 27.3137 2.6875 30 6 30H50C53.3125 30 56 27.3137 56 24V6C56 2.68628 53.3125 0 50 0H6ZM22.7656 14.0439H19.5977C19.2344 14.0439 18.9492 14.098 18.7305 14.2061C18.5898 14.278 18.4844 14.41 18.4258 14.6021C18.3789 14.7939 18.3555 15.052 18.3555 15.376C18.3555 15.688 18.3789 15.9399 18.4258 16.132C18.4727 16.312 18.5742 16.45 18.7305 16.546C18.8867 16.642 19.1523 16.6899 19.5234 16.6899H20.9453V18.652C20.6406 18.7775 20.3125 18.8665 19.9609 18.9189C19.707 18.9569 19.4414 18.976 19.1641 18.976C18.2539 18.976 17.4375 18.616 16.7148 17.896C15.9961 17.1639 15.6367 16.282 15.6367 15.25C15.6367 14.2061 15.9883 13.366 16.6992 12.73C17.4062 12.082 18.2148 11.7581 19.1289 11.7581C19.5898 11.7581 20.0078 11.8317 20.3867 11.9789C20.5781 12.0541 20.7578 12.1484 20.9297 12.262C21.2891 12.4924 21.5742 12.641 21.793 12.7075C21.8828 12.7345 21.9609 12.748 22.0273 12.748C22.4102 12.748 22.8359 12.4301 23.3047 11.7939C23.4492 11.5892 23.5586 11.3982 23.6289 11.2207C23.6875 11.0653 23.7188 10.9204 23.7188 10.786C23.7188 10.486 23.5547 10.2159 23.2305 9.97595C22.668 9.55823 22.0898 9.23364 21.4961 9.00232C20.7617 8.71545 20 8.57202 19.2188 8.57202C17.3945 8.57202 15.8086 9.21399 14.4648 10.498C13.1211 11.77 12.4492 13.36 12.4492 15.2679C12.4492 17.176 13.1094 18.808 14.4297 20.1639C15.75 21.5081 17.3047 22.1801 19.0938 22.1801C21.1094 22.1801 22.6211 21.658 23.6289 20.614C23.9648 20.266 24.1328 19.9 24.1328 19.516V15.556C24.1328 15.1121 24.0703 14.776 23.9531 14.548C23.8086 14.236 23.4102 14.068 22.7656 14.0439ZM26.4883 9.77795C26.4766 9.91003 26.4688 10.114 26.4688 10.39V20.3979C26.4688 20.818 26.5039 21.124 26.5781 21.316C26.7227 21.772 27.2148 22 28.0547 22C28.5078 22 28.8555 21.9436 29.1016 21.8308C29.2695 21.7524 29.3867 21.6469 29.457 21.514C29.5547 21.334 29.6094 21.178 29.6211 21.046C29.6445 20.9139 29.6562 20.704 29.6562 20.416V10.408C29.6562 9.98804 29.625 9.67603 29.5664 9.47205C29.4805 9.22925 29.293 9.05286 29.0039 8.94287C28.7617 8.85168 28.4492 8.80603 28.0703 8.80603C27.3047 8.80603 26.8359 8.96802 26.668 9.29199C26.5703 9.47205 26.5117 9.63403 26.4883 9.77795ZM41.3359 8.84204C41.2031 8.81799 41 8.80603 40.7227 8.80603H33.6289C32.9961 8.80603 32.5625 8.92004 32.3359 9.14795C32.2188 9.25879 32.1289 9.42163 32.0742 9.6366C32.0195 9.8407 31.9922 10.0918 31.9922 10.39V20.3979C31.9922 20.818 32.0273 21.124 32.1016 21.316C32.2461 21.772 32.7383 22 33.5781 22C34.0625 22 34.4297 21.9349 34.6758 21.8047C34.8164 21.7295 34.918 21.6326 34.9805 21.514C35.0781 21.334 35.1289 21.178 35.1445 21.046C35.1562 20.9884 35.1641 20.916 35.168 20.8287C35.1758 20.7159 35.1797 20.5784 35.1797 20.416V17.014H38.707C39.125 17.014 39.4336 16.984 39.625 16.924C40.082 16.7679 40.3086 16.27 40.3086 15.4301C40.3086 14.662 40.1523 14.188 39.8398 14.0081C39.6602 13.912 39.5 13.858 39.3555 13.8459C39.2227 13.822 39.0117 13.8101 38.7266 13.8101H35.1797V11.9919H40.6875C40.9766 11.9919 41.1836 11.986 41.3164 11.974C41.4609 11.95 41.6211 11.896 41.8008 11.812C41.9844 11.7159 42.1094 11.554 42.1797 11.326C42.2539 11.098 42.2891 10.792 42.2891 10.408C42.2891 10.024 42.2539 9.71802 42.1797 9.48999C42.1094 9.26196 41.9844 9.09998 41.8008 9.00403C41.6328 8.90796 41.4805 8.854 41.3359 8.84204Z" />
</svg>
