<svg viewBox="0 0 196 88" xmlns="http://www.w3.org/2000/svg">
<path opacity="0.5" d="M49.5416 78.8756C67.1479 74.158 77.5937 56.0653 72.8761 38.459C72.3223 36.3921 71.5826 34.4283 70.6852 32.5736L70.4852 30.532C69.8807 24.3415 64.8699 19.7855 59.0469 19.3707C51.4623 14.4233 41.8977 12.5956 32.4595 15.1245C23.0214 17.6534 15.6521 24.0187 11.5573 32.0955C6.70943 35.3696 4.6479 41.8206 7.23211 47.4806L8.07965 49.3487C8.22992 51.4036 8.57118 53.4741 9.12501 55.5411C13.8426 73.1473 31.9353 83.5932 49.5416 78.8756ZM32.4822 51.4178L22.6954 54.0402C19.7694 54.8242 16.7119 53.3747 15.4681 50.6252L12.8705 44.9155C11.2704 41.434 13.1969 37.368 16.895 36.3771L28.6865 33.2176C30.4795 32.7371 32.2676 33.0854 33.6779 34.0154L40.8748 32.087C41.6311 30.5765 43.0055 29.3808 44.7985 28.9003L56.59 25.7408C60.2881 24.7499 63.9771 27.3113 64.3445 31.1231L64.9499 37.3666C65.2225 40.3763 63.2994 43.1604 60.3733 43.9444L50.5865 46.5668C47.6605 47.3508 44.603 45.9013 43.3592 43.1518L40.7616 37.4421C40.6217 37.1192 40.4976 36.8055 40.4109 36.4818L36.2521 37.5961C36.3389 37.9198 36.4007 38.2503 36.4285 38.6031L37.0339 44.8467C37.3314 47.8497 35.4083 50.6338 32.4822 51.4178ZM32.4103 60.7121C35.3297 62.6923 39.8672 64.3858 45.2711 62.9378C50.675 61.4899 53.7578 57.7545 55.296 54.5799C55.7946 53.5521 57.0288 53.128 58.0566 53.6267C59.0843 54.1253 59.5085 55.3595 59.0098 56.3873C57.0873 60.3188 53.1994 65.0839 46.3387 66.9223C39.478 68.7606 33.7285 66.5778 30.0977 64.1343C29.152 63.4935 28.9022 62.2126 29.5429 61.2669C30.1836 60.3212 31.4646 60.0713 32.4103 60.7121Z"/>
<path opacity="0.5" d="M146.876 78.2921C155.329 80.5574 164.337 79.3715 171.917 74.9954C179.496 70.6193 185.027 63.4115 187.292 54.9576C189.557 46.5037 188.371 37.4962 183.995 29.9166C179.619 22.337 172.412 16.8063 163.958 14.541C155.504 12.2758 146.496 13.4617 138.917 17.8377C131.337 22.2138 125.806 29.4216 123.541 37.8756C121.276 46.3295 122.462 55.337 126.838 62.9166C131.214 70.4962 138.422 76.0269 146.876 78.2921ZM169.97 57.8963C171.628 57.8335 172.765 59.5661 171.749 60.8686C166.664 67.3933 158.036 70.6064 149.582 68.341C141.127 66.0757 135.25 58.9757 134.121 50.7862C133.892 49.1501 135.743 48.2182 137.148 49.1017C141.684 51.9453 147.035 54.2867 152.925 55.8647C158.814 57.4428 164.62 58.0908 169.97 57.8963ZM143.81 28.7202L153.406 37.6838C154.548 38.7505 154.034 40.668 152.512 41.0208L139.72 43.9856C138.596 44.245 137.591 43.215 137.891 42.0943C137.985 41.7457 138.199 41.4429 138.493 41.2415L144.417 37.0635L141.376 30.4835C141.222 30.1619 141.187 29.7924 141.281 29.4437C141.581 28.3231 142.967 27.9337 143.81 28.7202ZM176.148 38.773C176.055 39.1217 175.84 39.4245 175.546 39.6259L169.622 43.8038L172.663 50.3839C172.817 50.7055 172.852 51.075 172.758 51.4236C172.458 52.5443 171.073 52.9337 170.229 52.1472L160.633 43.1836C159.491 42.1169 160.005 40.1994 161.528 39.8466L174.319 36.8818C175.443 36.6224 176.448 37.6524 176.148 38.773Z"/>
<path d="M96 80C106.609 80 116.783 75.7857 124.284 68.2843C131.786 60.7828 136 50.6087 136 40C136 29.3913 131.786 19.2172 124.284 11.7157C116.783 4.21427 106.609 0 96 0C85.3913 0 75.2172 4.21427 67.7157 11.7157C60.2143 19.2172 56 29.3913 56 40C56 50.6087 60.2143 60.7828 67.7157 68.2843C75.2172 75.7857 85.3913 80 96 80ZM81.6406 50.8594C84.4375 54.0938 89.2187 57.5 96 57.5C102.781 57.5 107.562 54.0938 110.359 50.8594C111.266 49.8125 112.844 49.7031 113.891 50.6094C114.937 51.5156 115.047 53.0938 114.141 54.1406C110.656 58.1406 104.609 62.5 96 62.5C87.3906 62.5 81.3437 58.1406 77.8594 54.1406C76.9531 53.0938 77.0625 51.5156 78.1094 50.6094C79.1562 49.7031 80.7344 49.8125 81.6406 50.8594ZM89 36.5C86.25 32.8281 80.75 32.8281 78 36.5C77.1719 37.6094 75.6094 37.8281 74.5 37C73.3906 36.1719 73.1719 34.6094 74 33.5C78.75 27.1719 88.25 27.1719 93 33.5C93.8281 34.6094 93.6094 36.1719 92.5 37C91.3906 37.8281 89.8281 37.6094 89 36.5ZM103 36.5C102.172 37.6094 100.609 37.8281 99.5 37C98.3906 36.1719 98.1719 34.6094 99 33.5C103.75 27.1719 113.25 27.1719 118 33.5C118.828 34.6094 118.609 36.1719 117.5 37C116.391 37.8281 114.828 37.6094 114 36.5C111.25 32.8281 105.75 32.8281 103 36.5Z"/>
</svg>
