<svg  viewBox="0 0 512 512" fill="none" xmlns="http://www.w3.org/2000/svg">
<path d="M330.295 56.7163L334.938 65.4829L344.422 62.5716C373.235 53.7263 405.772 60.7427 428.515 83.4853C451.258 106.229 458.271 138.863 449.431 167.569L446.509 177.058L455.284 181.705C481.905 195.803 500 223.81 500 256C500 288.19 481.905 316.197 455.284 330.295L446.517 334.938L449.428 344.422C458.274 373.235 451.257 405.772 428.515 428.515C405.771 451.258 373.137 458.271 344.431 449.431L334.942 446.509L330.295 455.284C316.197 481.905 288.19 500 256 500C223.81 500 195.803 481.905 181.705 455.284L177.062 446.517L167.578 449.428C138.765 458.274 106.228 451.257 83.4853 428.515C60.742 405.771 53.7292 373.137 62.5686 344.431L65.4906 334.942L56.7163 330.295C30.0954 316.197 12 288.19 12 256C12 223.81 30.0954 195.803 56.7163 181.705L65.4829 177.062L62.5716 167.578C53.7263 138.765 60.7427 106.228 83.4853 83.4853C106.229 60.742 138.863 53.7292 167.569 62.5686L177.058 65.4906L181.705 56.7163C195.803 30.0954 223.81 12 256 12C288.19 12 316.197 30.0954 330.295 56.7163ZM377.485 217.485C391.546 203.424 391.612 180.591 377.44 166.569C363.455 152.734 340.673 152.431 326.593 166.637C326.585 166.645 326.577 166.652 326.569 166.66L224.1 269.129L185.585 230.615C171.524 216.554 148.691 216.488 134.669 230.66C120.834 244.645 120.531 267.427 134.737 281.507C134.745 281.515 134.752 281.523 134.76 281.531L198.715 345.485C212.768 359.539 235.584 359.612 249.607 345.463C249.615 345.456 249.623 345.448 249.631 345.44L377.485 217.485Z" fill="url(#paint0_linear_851_36)" stroke="url(#paint1_radial_851_36)" stroke-width="24"/>
<defs>
<linearGradient id="paint0_linear_851_36" x1="256" y1="0" x2="256" y2="512" gradientUnits="userSpaceOnUse">
<stop stop-color="#FC6B02"/>
<stop offset="1" stop-color="#FCD402"/>
</linearGradient>
<stop stop-color="white" stop-opacity="0"/>
<stop offset="0.626784" stop-color="white" stop-opacity="0.51"/>
<stop offset="1" stop-color="#EDA653" stop-opacity="0.78"/>
</defs>
</svg>
