<svg width="64" height="64" viewBox="0 0 64 64" fill="none" xmlns="http://www.w3.org/2000/svg">
<g clip-path="url(#clip0_2269_524)">
<path d="M32 0C36.6 0 40.6 2.5875 42.6125 6.3875C46.725 5.125 51.375 6.125 54.625 9.375C57.875 12.625 58.875 17.2875 57.6125 21.3875C61.4125 23.4 64 27.4 64 32C64 36.6 61.4125 40.6 57.6125 42.6125C58.875 46.725 57.875 51.375 54.625 54.625C51.375 57.875 46.7125 58.875 42.6125 57.6125C40.6 61.4125 36.6 64 32 64C27.4 64 23.4 61.4125 21.3875 57.6125C17.275 58.875 12.625 57.875 9.375 54.625C6.125 51.375 5.125 46.7125 6.3875 42.6125C2.5875 40.6 0 36.6 0 32C0 27.4 2.5875 23.4 6.3875 21.3875C5.125 17.275 6.125 12.625 9.375 9.375C12.625 6.125 17.2875 5.125 21.3875 6.3875C23.4 2.5875 27.4 0 32 0ZM46.125 26.125C47.3 24.95 47.3 23.05 46.125 21.8875C44.95 20.725 43.05 20.7125 41.8875 21.8875L28.0125 35.7625L22.1375 29.8875C20.9625 28.7125 19.0625 28.7125 17.9 29.8875C16.7375 31.0625 16.725 32.9625 17.9 34.125L25.9 42.125C27.075 43.3 28.975 43.3 30.1375 42.125L46.125 26.125Z" fill="url(#paint0_linear_2269_524)"/>
</g>
<defs>
<linearGradient id="paint0_linear_2269_524" x1="32" y1="0" x2="32" y2="64" gradientUnits="userSpaceOnUse">
<stop stop-color="#FC6B02"/>
<stop offset="1" stop-color="#FCD402"/>
</linearGradient>
<clipPath id="clip0_2269_524">
<rect width="64" height="64" fill="white"/>
</clipPath>
</defs>
</svg>
