<svg version="1.0" xmlns="http://www.w3.org/2000/svg" viewBox="0 0 256 256">
 <g>
  <path d="M119.20 164.15 c-7.30 -16.40 -10.60 -29.95 -10.05 -41.40 0.50 -10.10 3.15 -16.65 9.30 -22.80 5.25 -5.25 11.35 -8.50 20.05 -10.75 3.20 -0.80 5.55 -0.95 16.20 -0.95 l12.45 0 2.20 6.50 c1.20 3.60 2.30 6.90 2.45 7.40 0.25 0.80 -0.65 0.85 -13.70 0.85 -15.15 0 -16.55 0.20 -20 2.85 -2.80 2.10 -5.75 7.55 -6.85 12.55 l-0.35 1.60 9.05 0 9.05 0 0 -7.50 0 -7.50 10 0 10 0 0 26 0 26 -10 0 -10 0 0 -11.50 0 -11.50 -11 0 -11 0 0.30 1.40 c1.75 8.15 3.70 13.95 6.20 18.55 0.85 1.50 1.50 2.90 1.50 3.05 0 0.30 -11.50 8.30 -13.85 9.70 -0.45 0.25 -1.05 -0.60 -1.95 -2.55z"/>
  <path d="M31 122.50 l0 -34.50 9 0 8.95 0 7.65 10.50 c4.15 5.80 7.75 10.45 7.95 10.40 0.20 -0.10 3.95 -4.75 8.30 -10.40 l7.95 -10.25 9.10 -0.15 9.10 -0.10 0 34.50 0 34.50 -9 0 -9 0 -0.10 -20.85 -0.15 -20.85 -7.95 9.35 c-4.35 5.15 -8.10 9.35 -8.25 9.35 -0.35 0 -12.95 -15.55 -14.15 -17.45 -0.35 -0.55 -0.80 -1.05 -1 -1.05 -0.25 0 -0.40 9.35 -0.40 20.75 l0 20.75 -9 0 -9 0 0 -34.50z"/>
  <path d="M183 122.50 l0 -34.50 9 0 9 0 0 27 0 27 12.55 0 c11.25 0 12.55 0.10 12.25 0.80 -0.15 0.40 -0.75 2.60 -1.35 4.85 -0.55 2.25 -1.35 5.30 -1.75 6.75 l-0.75 2.60 -19.50 0 -19.45 0 0 -34.50z"/>
 </g>
</svg>