<svg  viewBox="0 0 960 841" xmlns="http://www.w3.org/2000/svg">
<path d="M44.7589 1.27001C22.3589 6.47001 3.55888 30.2033 0.625548 56.6033C-1.37445 74.87 -4.30779 68.6033 91.8255 252.47L179.959 421.137L92.7589 588.203C44.7589 679.937 4.35888 758.47 3.02555 762.47C-0.441119 772.87 -0.174452 789.937 3.69221 800.07C15.0255 829.67 43.9589 846.337 71.6922 839.27C76.4922 838.07 155.692 804.737 247.692 765.27C339.826 725.67 530.359 644.07 671.159 583.803C811.959 523.537 929.959 472.47 933.425 470.203C946.625 461.937 955.559 447.537 958.492 430.337C962.625 406.203 947.825 378.603 925.159 367.67C921.159 365.67 800.492 313.937 657.159 252.47C513.825 191.137 325.159 110.203 237.826 72.7367C150.626 35.27 75.6922 3.53668 71.4255 2.20334C63.1589 -0.329992 53.1589 -0.729992 44.7589 1.27001ZM289.826 191.67C378.626 229.937 510.625 286.87 583.425 318.203L715.692 375.137L487.426 375.537C279.026 375.803 259.026 375.67 257.559 373.67C256.759 372.47 228.226 318.337 194.359 253.27C160.492 188.337 131.026 131.937 128.759 127.937C126.226 123.537 125.426 121.003 126.626 121.403C127.692 121.937 201.159 153.537 289.826 191.67ZM714.492 467.67C713.425 468.337 594.892 519.403 451.159 581.137C307.426 643.003 175.426 699.67 157.959 707.27C140.359 714.87 125.959 721.003 125.826 720.737C125.559 720.47 252.492 477.003 256.492 470.07L258.626 466.47H487.559C616.359 466.47 715.559 467.003 714.492 467.67Z" fill="black"/>
</svg>
