<svg  viewBox="0 0 68 64" fill="none" xmlns="http://www.w3.org/2000/svg">
<path d="M29.3375 5.33828L24.625 7.10104C24.25 7.23856 24 7.60111 24 8.00117C24 8.40123 24.25 8.76378 24.625 8.9013L29.3375 10.6641L31.1 15.3773C31.2375 15.7523 31.6 16.0023 32 16.0023C32.4 16.0023 32.7625 15.7523 32.9 15.3773L34.6625 10.6641L39.375 8.9013C39.75 8.76378 40 8.40123 40 8.00117C40 7.60111 39.75 7.23856 39.375 7.10104L34.6625 5.33828L32.9 0.625092C32.7625 0.250037 32.4 0 32 0C31.6 0 31.2375 0.250037 31.1 0.625092L29.3375 5.33828ZM5.7625 49.4322C3.425 51.7701 3.425 55.5706 5.7625 57.921L10.0875 62.2466C12.425 64.5845 16.225 64.5845 18.575 62.2466L66.2375 14.5646C68.575 12.2268 68.575 8.42623 66.2375 6.07589L61.9125 1.76276C59.575 -0.575084 55.775 -0.575084 53.425 1.76276L5.7625 49.4322ZM60.575 10.3265L47.45 23.4534L44.5375 20.5405L57.6625 7.41359L60.575 10.3265ZM0.9375 14.6521C0.375 14.8647 0 15.4023 0 16.0023C0 16.6024 0.375 17.14 0.9375 17.3525L8 20.0029L10.65 27.0665C10.8625 27.629 11.4 28.0041 12 28.0041C12.6 28.0041 13.1375 27.629 13.35 27.0665L16 20.0029L23.0625 17.3525C23.625 17.14 24 16.6024 24 16.0023C24 15.4023 23.625 14.8647 23.0625 14.6521L16 12.0018L13.35 4.93822C13.1375 4.37564 12.6 4.00059 12 4.00059C11.4 4.00059 10.8625 4.37564 10.65 4.93822L8 12.0018L0.9375 14.6521ZM44.9375 46.6568C44.375 46.8694 44 47.4069 44 48.007C44 48.6071 44.375 49.1447 44.9375 49.3572L52 52.0076L54.65 59.0712C54.8625 59.6337 55.4 60.0088 56 60.0088C56.6 60.0088 57.1375 59.6337 57.35 59.0712L60 52.0076L67.0625 49.3572C67.625 49.1447 68 48.6071 68 48.007C68 47.4069 67.625 46.8694 67.0625 46.6568L60 44.0064L57.35 36.9429C57.1375 36.3803 56.6 36.0053 56 36.0053C55.4 36.0053 54.8625 36.3803 54.65 36.9429L52 44.0064L44.9375 46.6568Z" fill="url(#paint0_linear_3623_805)"/>
<defs>
<linearGradient id="paint0_linear_3623_805" x1="34" y1="-24" x2="31" y2="77.5" gradientUnits="userSpaceOnUse">
<stop stop-color="#B75BFF"/>
<stop offset="1" stop-color="#4F038A"/>
</linearGradient>
</defs>
</svg>
